<svg width="30" height="18" viewBox="0 0 30 18" fill="none" xmlns="http://www.w3.org/2000/svg">
<path d="M0.681001 0.909258C1.10294 0.487448 1.67513 0.250488 2.27175 0.250488C2.86837 0.250488 3.44056 0.487448 3.8625 0.909258L15 12.0468L26.1375 0.909258C26.5618 0.499402 27.1302 0.272614 27.7201 0.277741C28.3101 0.282867 28.8744 0.519498 29.2916 0.936666C29.7088 1.35383 29.9454 1.91816 29.9505 2.5081C29.9556 3.09805 29.7288 3.6664 29.319 4.09076L16.5907 16.819C16.1688 17.2408 15.5966 17.4778 15 17.4778C14.4034 17.4778 13.8312 17.2408 13.4092 16.819L0.681001 4.09076C0.259192 3.66882 0.0222321 3.09663 0.0222321 2.50001C0.0222321 1.90339 0.259192 1.3312 0.681001 0.909258Z" fill="#DE8B05"/>
</svg>
